<?xml version="1.0" encoding="UTF-8" standalone="no"?>
<!-- Created with Inkscape (http://www.inkscape.org/) -->
<svg
   xmlns:dc="http://purl.org/dc/elements/1.1/"
   xmlns:cc="http://creativecommons.org/ns#"
   xmlns:rdf="http://www.w3.org/1999/02/22-rdf-syntax-ns#"
   xmlns:svg="http://www.w3.org/2000/svg"
   xmlns="http://www.w3.org/2000/svg"
   xmlns:xlink="http://www.w3.org/1999/xlink"
   xmlns:sodipodi="http://sodipodi.sourceforge.net/DTD/sodipodi-0.dtd"
   xmlns:inkscape="http://www.inkscape.org/namespaces/inkscape"
   width="744.09448"
   height="524.40942"
   id="svg2"
   sodipodi:version="0.32"
   inkscape:version="0.46"
   version="1.0"
   sodipodi:docbase="/home/vms/Desktop"
   sodipodi:docname="pfeilgiftfrosch.svg"
   inkscape:output_extension="org.inkscape.output.svg.inkscape">
  <defs
     id="defs4">
    <inkscape:perspective
       sodipodi:type="inkscape:persp3d"
       inkscape:vp_x="0 : 358.08911 : 1"
       inkscape:vp_y="0 : 1000 : 0"
       inkscape:vp_z="963.3858 : 358.08911 : 1"
       inkscape:persp3d-origin="481.6929 : 238.72607 : 1"
       id="perspective44" />
    <linearGradient
       inkscape:collect="always"
       id="linearGradient3236">
      <stop
         style="stop-color:#ffffff;stop-opacity:1;"
         offset="0"
         id="stop3238" />
      <stop
         style="stop-color:#ffffff;stop-opacity:0;"
         offset="1"
         id="stop3240" />
    </linearGradient>
    <linearGradient
       id="linearGradient3183">
      <stop
         style="stop-color:#053871;stop-opacity:0.85462552;"
         offset="0"
         id="stop3187" />
      <stop
         id="stop3189"
         offset="1"
         style="stop-color:#0079ff;stop-opacity:1;" />
    </linearGradient>
    <linearGradient
       id="linearGradient3246">
      <stop
         style="stop-color:#000000;stop-opacity:0;"
         offset="0"
         id="stop3248" />
      <stop
         style="stop-color:#000000;stop-opacity:1;"
         offset="1"
         id="stop3250" />
    </linearGradient>
    <linearGradient
       inkscape:collect="always"
       id="linearGradient3222">
      <stop
         style="stop-color:#ffffff;stop-opacity:1;"
         offset="0"
         id="stop3224" />
      <stop
         style="stop-color:#ffffff;stop-opacity:0;"
         offset="1"
         id="stop3226" />
    </linearGradient>
    <linearGradient
       id="linearGradient3188">
      <stop
         style="stop-color:#0079ff;stop-opacity:1;"
         offset="0"
         id="stop3192" />
      <stop
         id="stop3194"
         offset="1"
         style="stop-color:#00234a;stop-opacity:1;" />
    </linearGradient>
    <linearGradient
       id="linearGradient3162">
      <stop
         style="stop-color:#005bc1;stop-opacity:1;"
         offset="0"
         id="stop3164" />
      <stop
         id="stop3170"
         offset="0.5"
         style="stop-color:#0079ff;stop-opacity:1;" />
      <stop
         style="stop-color:#00234a;stop-opacity:1;"
         offset="1"
         id="stop3166" />
    </linearGradient>
    <linearGradient
       inkscape:collect="always"
       xlink:href="#linearGradient3162"
       id="linearGradient3168"
       x1="-98.652061"
       y1="325.99783"
       x2="-71.213257"
       y2="680.104"
       gradientUnits="userSpaceOnUse" />
    <linearGradient
       inkscape:collect="always"
       xlink:href="#linearGradient3162"
       id="linearGradient3178"
       x1="198.11511"
       y1="861.16016"
       x2="130.92953"
       y2="368.11099"
       gradientUnits="userSpaceOnUse" />
    <linearGradient
       inkscape:collect="always"
       xlink:href="#linearGradient3188"
       id="linearGradient3186"
       x1="245.52968"
       y1="625.06653"
       x2="-2.9406488"
       y2="185.62259"
       gradientUnits="userSpaceOnUse" />
    <linearGradient
       inkscape:collect="always"
       xlink:href="#linearGradient3188"
       id="linearGradient3202"
       x1="728.15753"
       y1="759.26837"
       x2="702.82642"
       y2="516.75269"
       gradientUnits="userSpaceOnUse" />
    <linearGradient
       inkscape:collect="always"
       xlink:href="#linearGradient3188"
       id="linearGradient3210"
       x1="319.07822"
       y1="107.39252"
       x2="-621.53857"
       y2="703.07971"
       gradientUnits="userSpaceOnUse" />
    <linearGradient
       inkscape:collect="always"
       xlink:href="#linearGradient3222"
       id="linearGradient3228"
       x1="488.84033"
       y1="560.48822"
       x2="446.93042"
       y2="482.50299"
       gradientUnits="userSpaceOnUse"
       gradientTransform="matrix(0.4681499,0.8836491,-0.8836491,0.4681499,709.82455,-205.21412)" />
    <radialGradient
       inkscape:collect="always"
       xlink:href="#linearGradient3246"
       id="radialGradient3254"
       cx="513.06104"
       cy="477.89777"
       fx="513.06104"
       fy="477.89777"
       r="43.6861"
       gradientTransform="matrix(0.783958,-0.465925,1.0546678,1.7745671,-399.41648,-116.99914)"
       gradientUnits="userSpaceOnUse" />
    <linearGradient
       inkscape:collect="always"
       xlink:href="#linearGradient3236"
       id="linearGradient3242"
       x1="500.89828"
       y1="555.23083"
       x2="748.909"
       y2="234.58282"
       gradientUnits="userSpaceOnUse" />
    <linearGradient
       inkscape:collect="always"
       xlink:href="#linearGradient3246"
       id="linearGradient3256"
       x1="691.38568"
       y1="297.02008"
       x2="537.98944"
       y2="543.53815"
       gradientUnits="userSpaceOnUse" />
    <linearGradient
       inkscape:collect="always"
       xlink:href="#linearGradient3162"
       id="linearGradient2427"
       gradientUnits="userSpaceOnUse"
       x1="198.11511"
       y1="861.16016"
       x2="130.92953"
       y2="368.11099" />
    <linearGradient
       inkscape:collect="always"
       xlink:href="#linearGradient3162"
       id="linearGradient2429"
       gradientUnits="userSpaceOnUse"
       x1="-98.652061"
       y1="325.99783"
       x2="-71.213257"
       y2="680.104" />
    <linearGradient
       inkscape:collect="always"
       xlink:href="#linearGradient3188"
       id="linearGradient2431"
       gradientUnits="userSpaceOnUse"
       x1="728.15753"
       y1="759.26837"
       x2="702.82642"
       y2="516.75269" />
    <linearGradient
       inkscape:collect="always"
       xlink:href="#linearGradient3188"
       id="linearGradient2433"
       gradientUnits="userSpaceOnUse"
       x1="319.07822"
       y1="107.39252"
       x2="-621.53857"
       y2="703.07971" />
    <linearGradient
       inkscape:collect="always"
       xlink:href="#linearGradient3188"
       id="linearGradient2435"
       gradientUnits="userSpaceOnUse"
       x1="245.52968"
       y1="625.06653"
       x2="-2.9406488"
       y2="185.62259" />
    <linearGradient
       inkscape:collect="always"
       xlink:href="#linearGradient3236"
       id="linearGradient2437"
       gradientUnits="userSpaceOnUse"
       x1="500.89828"
       y1="555.23083"
       x2="748.909"
       y2="234.58282" />
    <radialGradient
       inkscape:collect="always"
       xlink:href="#linearGradient3246"
       id="radialGradient2439"
       gradientUnits="userSpaceOnUse"
       gradientTransform="matrix(0.783958,-0.465925,1.0546678,1.7745671,-399.41648,-116.99914)"
       cx="513.06104"
       cy="477.89777"
       fx="513.06104"
       fy="477.89777"
       r="43.6861" />
    <linearGradient
       inkscape:collect="always"
       xlink:href="#linearGradient3246"
       id="linearGradient2441"
       gradientUnits="userSpaceOnUse"
       x1="691.38568"
       y1="297.02008"
       x2="537.98944"
       y2="543.53815" />
  </defs>
  <sodipodi:namedview
     id="base"
     pagecolor="#ffffff"
     bordercolor="#666666"
     borderopacity="1.0"
     inkscape:pageopacity="0.0"
     inkscape:pageshadow="2"
     inkscape:zoom="0.17240117"
     inkscape:cx="2108.3893"
     inkscape:cy="277.75283"
     inkscape:document-units="px"
     inkscape:current-layer="layer1"
     inkscape:window-width="1280"
     inkscape:window-height="949"
     inkscape:window-x="0"
     inkscape:window-y="25"
     showgrid="false" />
  <metadata
     id="metadata7">
    <rdf:RDF>
      <cc:Work
         rdf:about="">
        <dc:format>image/svg+xml</dc:format>
        <dc:type
           rdf:resource="http://purl.org/dc/dcmitype/StillImage" />
      </cc:Work>
    </rdf:RDF>
  </metadata>
  <g
     inkscape:label="Ebene 1"
     inkscape:groupmode="layer"
     id="layer1"
     transform="translate(95.726351,-196.46556)">
    <g
       id="g2417"
       transform="matrix(0.7246294,0,0,0.7246294,-26.360225,54.100845)">
      <path
         sodipodi:nodetypes="csscccssccccccccccccc"
         id="path2174"
         d="M 216.0155,360.86428 C 216.0155,360.86428 213.53257,342.86298 186.22026,345.96665 C 158.90795,349.07032 139.04446,357.45024 106.76628,373.27896 C 74.488102,389.10768 57.107547,409.28154 57.107547,409.28154 L 89.385726,494.94286 L 9.9317473,564.4651 C -14.141248,579.99945 -77.655603,595.64829 -81.936915,627.77998 C -83.205407,637.30014 -69.832598,643.60871 -59.590484,641.43614 C -49.34837,639.26357 -40.968458,619.08971 -40.968458,619.08971 L -19.863495,610.39943 L -43.451395,636.47026 C -53.479661,640.54623 -64.916796,653.08813 -58.349016,663.78257 C -36.923541,681.43137 -7.9846412,670.28933 -2.4829368,643.91907 L 36.002584,607.91649 L 28.553774,638.9532 C 18.497751,648.62075 13.200238,665.21788 23.5879,676.19725 C 42.862621,690.36963 56.265525,674.21731 62.073421,656.33376 C 68.59113,633.98733 70.7637,589.29446 70.7637,589.29446 L 151.45915,545.84307 L 281.81333,496.18433 L 216.0155,360.86428 z"
         style="fill:url(#linearGradient2427);fill-opacity:1;fill-rule:evenodd;stroke:none;stroke-width:1px;stroke-linecap:butt;stroke-linejoin:miter;stroke-opacity:1" />
      <path
         sodipodi:nodetypes="ccccc"
         id="path2172"
         d="M 249.53515,352.174 C 177.99966,385.69795 -26.374397,372.17974 -14.897621,485.01112 C 1.062268,540.07867 100.03218,516.03648 140.28593,511.08195 L 288.02067,507.35755 L 249.53515,352.174 z"
         style="fill:url(#linearGradient2429);fill-opacity:1;fill-rule:evenodd;stroke:none;stroke-width:1px;stroke-linecap:butt;stroke-linejoin:miter;stroke-opacity:1" />
      <path
         sodipodi:nodetypes="ccccccscccccccccccccccsccccc"
         id="path3149"
         d="M 800.80519,596.72133 L 717.20139,616.42794 L 717.20139,701.82328 L 657.48439,725.11292 L 579.25509,727.5016 L 561.33999,724.51575 C 561.33999,724.51575 548.65009,732.72684 546.41069,740.04217 C 544.17129,747.35751 552.38239,753.77709 552.38239,753.77709 L 630.01459,756.76294 L 670.62209,754.37426 L 609.11359,774.08087 C 599.39724,762.87796 568.29913,770.02673 572.68619,790.80164 C 583.09341,803.86273 602.11678,807.13921 616.87679,799.75919 L 699.28629,778.85824 L 700.48059,814.68845 C 691.21458,819.16876 667.92734,818.55823 671.81649,833.20072 C 679.16946,853.61044 704.36493,869.04236 724.96459,857.6847 C 732.87709,851.11583 722.57589,829.6177 722.57589,829.6177 L 739.89389,802.74504 L 766.76649,821.85449 L 779.30709,833.79789 C 779.30709,833.79789 774.67907,847.83139 782.29299,855.29602 C 798.68159,866.67863 819.41206,867.50413 831.26089,851.713 C 841.46818,838.10958 833.24677,815.74649 807.37409,826.03468 L 777.51559,797.37051 L 772.14109,778.85824 L 790.05619,711.97517 L 800.80519,596.72133 z"
         style="fill:url(#linearGradient2431);fill-opacity:1;fill-rule:evenodd;stroke:none;stroke-width:1px;stroke-linecap:butt;stroke-linejoin:miter;stroke-opacity:1" />
      <path
         sodipodi:nodetypes="cccscccscccccccccccccccsccccc"
         id="path2170"
         d="M 280.57186,542.11866 C 314.98503,585.55796 391.23072,625.52911 446.92863,605.43355 L 521.41673,586.81153 C 647.12141,642.45393 726.81964,673.427 834.8985,585.07961 C 900.96008,531.07859 846.68146,455.21587 846.68146,455.21587 C 846.68146,455.21587 859.71688,436.59385 856.61321,411.76448 C 844.23418,337.77175 798.92365,316.92867 729.98343,332.3105 C 729.98343,332.3105 674.11735,287.30727 641.83917,267.75414 C 609.56099,248.20101 600.87071,254.09799 600.87071,254.09799 C 572.65942,236.97742 536.2737,183.27479 501.55324,199.47338 C 488.82819,202.88742 477.96534,214.371 477.96534,214.371 L 377.4064,225.54422 C 377.4064,225.54422 366.85392,219.95761 355.05997,220.57834 C 343.26602,221.19907 339.54161,222.13018 330.2306,228.02715 C 316.64977,234.86553 314.55863,235.4079 305.54983,254.19462 C 289.45915,287.74969 242.08634,357.13987 242.08634,357.13987 C 196.17803,403.47218 251.52827,500.68998 280.57186,542.11866 z"
         style="fill:url(#linearGradient2433);fill-opacity:1;fill-rule:evenodd;stroke:none;stroke-width:1px;stroke-linecap:butt;stroke-linejoin:miter;stroke-opacity:1" />
      <path
         sodipodi:nodetypes="ccccscccccccscccccccccccccccccsc"
         id="path3147"
         d="M 401.13559,500.08629 C 382.83487,444.26299 328.48899,460.19169 285.49979,455.38672 C 203.72117,429.43682 189.46078,444.21228 171.80739,488.42553 C 145.32776,546.24344 67.83239,693.46049 67.83239,693.46049 C 67.83239,693.46049 55.68569,729.65742 37.70869,751.76427 C 19.73169,773.87112 -4.0756096,781.88789 -4.0756096,781.88789 L -56.54901,795.4921 C -69.065999,788.31991 -81.571135,784.80307 -89.58791,795.4921 C -110.55445,839.34526 -73.778228,853.24458 -40.02961,827.55918 L 14.38719,805.2094 L 40.62389,803.26594 L -15.73641,869.34356 C -40.482634,858.61414 -45.32788,899.87863 -27.157264,909.14828 C -3.2005416,921.36968 22.244626,898.8573 16.33069,882.94777 L 32.85009,864.48491 L 89.21039,797.43556 L 103.78629,791.60518 L 119.33399,821.7288 L 149.45759,841.1634 C 149.45759,841.1634 153.34449,850.39483 159.17489,854.76761 C 169.75395,861.47706 182.97287,858.98023 188.32679,846.99378 C 191.20791,822.50439 163.14187,813.09773 143.62729,809.09632 L 139.74029,758.56638 L 156.25979,760.50984 L 184.43989,778.00097 C 184.43989,778.00097 222.84735,781.86677 239.85263,776.76519 C 257.14294,774.4258 249.42626,748.38099 240.80019,746.90562 C 227.19597,745.69096 198.04409,752.736 198.04409,752.736 L 147.51419,699.29087 C 147.51419,699.29087 207.92621,581.73419 236.83516,535.81996 C 262.22907,497.38431 293.02065,582.00505 367.84968,605.7247 C 446.05297,630.51394 414.08087,537.94429 401.13559,500.08629 z"
         style="fill:url(#linearGradient2435);fill-opacity:1;fill-rule:evenodd;stroke:none;stroke-width:1px;stroke-linecap:butt;stroke-linejoin:miter;stroke-opacity:1" />
      <path
         sodipodi:nodetypes="cssccssccsssccsssccssccssccsssccssssccsssccssccssccsssssssssssssssssssssssssssssssssssssssssssssssssssssssssssssssssssssssssssssssssssssssssssssssssssssssssssssssssssssssssssssssssssssssssssssssssssssssssssssssssssssssssssssssssssssssssssssssccssssssssssssccssccsssccssccssccssccsssccssccssccssssssssssssssssccsssccssccsssccccsssccssccssccssccssccsssccssccssccssccssccsssccsssccssccssccssccssccssccsssccssccssccssccsssccssccssccsssccssccssccsssccsssccsssccsssccssccsssccsssccssssccssccsssssccssccssccsssccsssccsssccssccsssccssc"
         style="opacity:0.53716221;fill:url(#linearGradient2437);fill-opacity:1"
         d="M -23.083049,873.67887 C -21.975749,870.35677 -18.437949,870.01437 -17.399749,873.12887 C -16.895549,874.64137 -18.133049,875.87887 -20.149749,875.87887 C -22.166449,875.87887 -23.486449,874.88887 -23.083049,873.67887 z M -74.927549,815.16467 C -76.964949,809.85527 -74.442449,807.57907 -67.137849,808.13567 C -55.771049,809.00177 -56.154749,814.54837 -67.770349,817.27917 C -71.949949,818.26177 -73.967849,817.66557 -74.927549,815.16467 z M -56.449749,805.47887 C -56.449749,804.26887 -55.459749,803.27886 -54.249749,803.27886 C -53.039749,803.27886 -52.049749,804.26887 -52.049749,805.47887 C -52.049749,806.68887 -53.039749,807.67887 -54.249749,807.67887 C -55.459749,807.67887 -56.449749,806.68887 -56.449749,805.47887 z M 110.75025,779.07886 C 108.75395,775.34881 109.07715,774.67886 112.87285,774.67886 C 115.88355,774.67886 117.35025,776.12017 117.35025,779.07886 C 117.35025,781.49886 116.39505,783.47886 115.22765,783.47886 C 114.06025,783.47886 112.04535,781.49886 110.75025,779.07886 z M 7.3502511,779.5532 C 7.3502511,777.47612 19.137851,770.27886 22.539651,770.27886 C 27.842851,770.27886 24.516551,776.59964 18.021951,778.86364 C 9.8105511,781.72617 7.3502511,781.88514 7.3502511,779.5532 z M 744.3503,764.70983 C 744.3503,761.16325 750.2058,757.80099 752.4587,760.05392 C 754.0256,761.62081 749.0541,768.07886 746.2809,768.07886 C 745.2191,768.07886 744.3503,766.5628 744.3503,764.70983 z M 204.3603,757.44974 C 207.6856,754.53953 225.0246,750.14149 227.3956,751.60682 C 228.5807,752.33927 229.5503,754.36512 229.5503,756.10871 C 229.5503,758.52805 226.3198,759.27886 215.9103,759.27886 C 208.4083,759.27886 203.2108,758.45575 204.3603,757.44974 z M 753.9637,747.72886 C 754.6933,745.00636 755.3037,740.98793 755.3203,738.79902 C 755.3368,736.61011 756.3403,735.43104 757.5503,736.17886 C 758.7603,736.92669 759.7503,740.94512 759.7503,745.10871 C 759.7503,750.61379 758.7801,752.67886 756.1937,752.67886 C 753.579,752.67886 752.9884,751.36795 753.9637,747.72886 z M 76.712551,740.02886 C 77.610751,737.91136 78.226851,734.00042 78.081651,731.33789 C 77.777151,725.75539 81.529751,722.57835 84.692451,725.74105 C 87.368451,728.41706 81.345551,743.87886 77.627151,743.87886 C 76.045351,743.87886 75.698651,742.41925 76.712551,740.02886 z M 84.350251,717.60871 C 84.350251,716.47012 85.328951,714.93368 86.525051,714.19444 C 87.772151,713.42369 88.140951,714.30677 87.389651,716.26459 C 85.927151,720.07592 84.350251,720.77325 84.350251,717.60871 z M -43.134849,635.11729 C -46.548749,631.00377 -44.668849,625.07886 -39.949749,625.07886 C -35.045949,625.07886 -33.260149,631.43209 -37.087849,635.25987 C -39.940949,638.11296 -40.662749,638.09595 -43.134849,635.11729 z M 773.6639,616.00467 C 770.2464,613.75141 764.4803,611.8971 760.8503,611.88394 C 749.9172,611.84432 722.7313,590.47071 722.4397,581.68536 C 722.3905,580.20392 719.3803,577.45601 715.7503,575.57886 C 711.2281,573.24035 709.1503,570.52122 709.1503,566.94177 C 709.1503,560.13997 683.3666,533.46032 674.7314,531.32683 C 665.1429,528.95778 653.1024,520.62911 639.2075,506.75402 C 632.2812,499.83768 622.4149,492.29601 617.2823,489.99475 C 611.7311,487.50578 607.9503,484.33012 607.9503,482.15635 C 607.9503,478.20081 597.0575,466.67886 593.3179,466.67886 C 588.3954,466.67886 577.0519,459.51868 573.065,453.89486 C 567.765,446.41891 561.4929,428.10947 562.9401,424.33823 C 563.5807,422.6687 567.6079,421.47887 572.6181,421.47887 C 578.0499,421.47887 582.9455,419.89822 585.9583,417.17165 C 588.952,414.46237 593.0981,413.1141 597.134,413.53744 C 606.5108,414.521 605.3018,409.20716 594.5467,402.16562 C 584.765,395.76138 580.9723,396.20197 581.995,403.62376 C 582.4783,407.1308 581.3498,408.56355 577.6955,409.08251 C 574.9703,409.46951 571.718,411.69701 570.4681,414.03251 C 567.5873,419.41527 564.7714,419.45639 563.3801,414.136 C 562.1021,409.24874 551.2106,406.96514 526.9259,406.4926 C 514.9611,406.2598 510.1371,405.27189 508.2259,402.66304 C 505.6602,399.16069 491.0039,398.09195 487.9139,401.18187 C 487.1066,401.98927 484.196,401.17558 481.4459,399.37369 C 476.9819,396.44877 476.0656,396.4779 472.8981,399.64535 C 470.9468,401.59664 469.3503,404.72864 469.3503,406.60538 C 469.3503,409.4307 468.7667,409.53325 465.9571,407.20149 C 463.4439,405.11569 461.922,405.02712 460.0892,406.85998 C 458.2563,408.69282 458.5658,409.69965 461.2824,410.74212 C 467.9315,413.2936 465.1114,415.34554 454.9556,415.34554 C 446.6822,415.34554 445.2154,414.74564 446.4385,411.86219 C 447.2512,409.94636 448.4314,405.90386 449.0611,402.87886 C 449.6908,399.85386 451.2673,396.6902 452.5645,395.84848 C 453.8616,395.00678 454.1552,393.55044 453.217,392.61219 C 452.2787,391.67395 450.8224,391.86762 449.9807,393.04257 C 449.139,394.21753 445.3032,395.28072 441.4567,395.40522 C 435.0224,395.61345 434.4784,395.08893 434.6559,388.84713 C 434.78,384.48339 436.7144,380.59515 440.0776,377.94967 C 445.4913,373.69129 445.3465,366.12729 439.7888,362.85831 C 438.2738,361.96722 437.582,358.09661 438.1176,353.50831 C 438.7936,347.71822 440.0813,345.67886 443.0612,345.67886 C 449.0707,345.67886 450.4836,341.55657 446.1248,336.74024 C 442.6149,332.86179 442.5956,332.47886 445.9093,332.47886 C 449.2391,332.47886 450.1199,330.86587 449.2131,326.42886 C 449.0276,325.52136 447.0476,325.0886 444.8131,325.46715 C 442.3022,325.89252 440.7503,324.84211 440.7503,322.71715 C 440.7503,320.50468 442.7364,319.27886 446.321,319.27886 C 449.3848,319.27886 455.4457,317.79386 459.7896,315.97886 C 464.1336,314.16386 470.2892,312.69402 473.469,312.71254 C 480.1081,312.75124 487.2279,316.84208 483.4123,318.42568 C 482.0714,318.98221 479.1014,320.81613 476.8123,322.50107 C 472.8478,325.41924 472.838,325.63737 476.606,327.09768 C 479.1881,328.0984 481.5467,327.28367 483.3984,324.75136 C 487.4336,319.23286 504.725,322.01197 512.7755,329.47291 C 517.5464,333.89441 520.1521,334.71796 525.9372,333.63267 C 530.3507,332.80468 533.1503,333.17204 533.1503,334.57918 C 533.1503,337.77233 540.4769,337.46422 543.8579,334.12886 C 546.0943,331.92259 547.5226,332.57509 551.0814,337.42886 C 556.6066,344.9645 566.1503,345.86043 566.1503,338.84348 C 566.1503,335.46648 567.1219,334.58094 569.7292,335.58143 C 571.6975,336.33678 574.42,336.07258 575.7792,334.99434 C 577.1383,333.9161 582.7053,332.38664 588.1503,331.59554 C 602.6971,329.48204 613.7708,325.17704 620.2195,319.12834 C 623.3563,316.18612 627.5714,314.02823 629.5865,314.33302 C 631.6016,314.63781 638.0322,312.56044 643.8768,309.71663 C 653.7561,304.90961 654.2478,304.29061 650.8696,300.91247 C 646.3802,296.42306 644.4531,296.35825 640.9503,300.57886 C 639.444,302.39386 636.6943,303.87886 634.84,303.87886 C 631.9094,303.87886 631.9446,303.35262 635.1093,299.85563 C 637.1119,297.64285 638.7503,294.78833 638.7503,293.51222 C 638.7503,290.14736 629.8985,288.35179 625.3393,290.79181 C 623.1944,291.93968 617.4729,292.87886 612.6248,292.87886 C 607.7766,292.87886 603.1981,293.86886 602.4503,295.07886 C 601.7025,296.28886 598.2458,297.27886 594.7687,297.27886 C 590.379,297.27886 588.02,298.62363 587.0503,301.67886 C 585.1013,307.81979 581.5503,307.18018 581.5503,300.68818 C 581.5503,297.72331 579.8991,294.37345 577.8811,293.24408 C 574.8445,291.54472 575.4042,290.92878 581.1274,289.67174 C 584.9309,288.83634 589.0571,288.77962 590.2966,289.54568 C 591.5361,290.31175 592.5503,289.44431 592.5503,287.61802 C 592.5503,285.79174 594.2688,283.33577 596.3692,282.16033 C 599.7401,280.2739 599.5465,279.89063 594.7192,278.89353 C 581.1851,276.09797 572.0311,275.6612 567.0072,277.57131 C 562.4659,279.29791 561.9492,280.3397 563.8618,283.91344 C 567.0364,289.84522 566.9771,289.96019 559.3841,292.60714 C 553.9053,294.51707 552.8934,295.83384 554.0659,299.52792 C 556.2105,306.28502 551.5579,311.01469 546.0956,307.63035 C 542.9016,305.65147 541.4145,305.61792 540.2332,307.49808 C 539.2978,308.98667 534.6002,309.70451 528.7503,309.25271 C 496.0004,306.72348 485.284,303.50196 499.6003,300.48974 C 512.9808,297.67442 515.9466,293.27515 509.0878,286.41636 C 505.9925,283.32107 501.7073,281.87886 495.6057,281.87886 C 482.9802,281.87886 477.4223,285.27881 479.1027,291.97418 C 480.3296,296.86249 479.8513,297.26082 473.3763,296.7434 C 467.9416,296.30915 465.728,297.3182 463.7843,301.11581 C 461.0442,306.46958 458.3503,305.51465 458.3503,299.18961 C 458.3503,294.73667 452.1257,290.67886 445.2949,290.67886 C 438.7309,290.67886 439.712,294.69267 447.3364,299.03118 C 450.9587,301.09241 453.9287,303.55243 453.9364,304.4979 C 453.962,307.65767 446.9295,308.95763 445.1742,306.11758 C 443.0313,302.65027 438.5503,305.11781 438.5503,309.76516 C 438.5503,312.24258 437.0122,312.89778 432.9978,312.13038 C 429.9439,311.54659 426.9106,311.93405 426.2571,312.99142 C 424.6146,315.64904 413.9922,313.45916 411.87,310.0254 C 410.9149,308.47992 410.7213,304.87311 411.4398,302.01027 C 412.608,297.35588 412.2797,297.05479 408.3375,299.16459 C 405.9127,300.46231 403.3037,300.8989 402.5396,300.13479 C 399.4508,297.04601 401.4787,293.27343 406.9685,291.89557 C 411.2661,290.81696 412.1421,289.7907 410.3205,287.96906 C 408.4989,286.14741 406.7015,286.5461 403.4436,289.49447 C 399.8323,292.76264 398.4272,292.98352 395.6916,290.71312 C 393.8539,289.18797 392.3503,286.76154 392.3503,285.32109 C 392.3503,282.3056 402.8571,272.00753 407.7503,270.22702 C 409.5653,269.56658 406.9012,268.94808 401.8301,268.85255 C 396.7591,268.75703 391.9981,269.66886 391.2503,270.87886 C 390.5025,272.08886 388.7217,273.07886 387.2929,273.07886 C 385.8642,273.07886 387.4291,270.54396 390.7703,267.44574 C 394.1116,264.3475 396.2706,260.8825 395.568,259.74574 C 393.8243,256.9243 410.6933,257.10189 413.5262,259.93476 C 414.767,261.17552 418.8424,262.57798 422.5828,263.05135 C 426.3232,263.52472 431.3035,265.72708 433.6501,267.94545 C 441.9578,275.79901 451.8421,282.97886 454.3462,282.97886 C 458.9277,282.97886 458.9178,277.21535 454.3343,276.01672 C 448.697,274.54254 446.3563,268.9222 450.6874,267.26021 C 452.482,266.57155 453.9503,264.13404 453.9503,261.84348 C 453.9503,257.09766 458.8281,256.34707 463.1432,260.42886 C 464.7421,261.94136 471.0003,263.33308 477.0503,263.52156 C 483.1003,263.71005 490.9125,264.01979 494.4107,264.20987 C 502.7737,264.6643 513.3503,260.17305 513.3503,256.16733 C 513.3503,250.81356 508.915,244.33234 503.8565,242.29422 C 499.3563,240.48104 499.4399,240.34889 505.1693,240.21832 C 508.5348,240.1416 511.8679,238.56858 512.5763,236.72272 C 513.5728,234.12577 514.5562,233.94088 516.9233,235.9054 C 518.9985,237.62773 524.8898,237.96066 535.2417,236.94061 C 552.6089,235.22929 563.9503,239.07146 563.9503,246.66632 C 563.9503,249.60801 565.0048,250.53612 567.3323,249.64299 C 569.1923,248.92922 572.4098,249.84809 574.4823,251.68492 C 576.5547,253.52176 580.2303,255.39583 582.6503,255.84954 C 585.8453,256.44855 587.0503,258.41613 587.0503,263.03412 C 587.0503,270.07467 591.0349,272.67532 595.7836,268.73419 C 598.0622,266.84318 600.0565,266.80904 603.4097,268.6036 C 608.544,271.35142 609.2734,274.37534 605.2003,276.02805 C 600.3643,277.9903 608.465,282.10471 614.8703,280.93955 C 625.6974,278.97004 636.7344,282.07673 638.8705,287.69507 C 640.1986,291.18827 642.5947,292.87886 646.2176,292.87886 C 652.4082,292.87886 665.1091,299.52018 665.1503,302.77886 C 665.1656,303.98886 668.2831,306.74641 672.0782,308.90674 C 678.4899,312.55663 678.6987,313.03905 675.0282,315.723 C 672.8556,317.3116 671.7158,319.64327 672.4953,320.90446 C 673.2748,322.16568 671.3854,324.85342 668.2966,326.87724 C 660.8027,331.78745 662.0284,338.7785 671.3332,344.1976 C 686.6885,353.14047 701.4857,339.85694 689.0619,328.28241 C 682.7193,322.37336 687.8841,322.20618 695.35,328.07886 C 698.4265,330.49886 703.6743,332.47886 707.0116,332.47886 C 713.0498,332.47886 717.7445,338.04746 713.0309,339.61865 C 709.5149,340.79066 712.7331,347.87886 716.7813,347.87886 C 718.6342,347.87886 720.1503,346.39386 720.1503,344.57886 C 720.1503,340.65646 721.2054,340.51135 727.0361,343.63183 C 730.3828,345.42291 731.1212,347.40329 730.1281,351.92464 C 728.6481,358.6632 733.4636,367.02817 737.4166,364.58513 C 738.8101,363.72386 739.9503,361.09761 739.9503,358.74902 C 739.9503,355.94554 741.4616,354.47886 744.3503,354.47886 C 749.6211,354.47886 749.8879,356.17539 745.3973,361.13747 C 743.5531,363.17526 742.6347,366.38137 743.3565,368.26215 C 746.7157,377.01637 768.6915,373.89325 777.5105,363.40833 C 783.8639,355.85472 786.5513,355.16033 790.5914,360.02843 C 793.0798,363.0267 793.9134,363.02283 798.5398,359.99147 C 809.5281,352.79168 838.78,366.70838 848.7254,383.86732 C 854.6324,394.05891 856.7862,408.81374 852.7325,411.31903 C 850.7224,412.56133 850.6824,416.4183 852.5617,427.75994 C 854.3932,438.81243 854.3734,444.72647 852.4837,451.03356 C 849.0593,462.46311 849.2946,468.03287 853.4708,474.4066 C 855.407,477.36173 857.8945,483.51438 858.9985,488.07921 C 869.3874,531.03491 871.6443,565.05215 864.7374,574.58072 C 862.5853,577.54971 858.1303,583.63031 854.8374,588.09321 C 846.5966,599.26195 824.3962,613.51758 811.2506,616.08174 C 789.3554,620.35258 780.23,620.33388 773.6639,616.00467 z M 776.4913,576.28889 C 778.4085,573.18682 769.5806,565.67886 764.0159,565.67886 C 761.7901,565.67886 759.1697,564.25073 758.1929,562.50523 C 757.2161,560.75975 753.9494,558.39644 750.9336,557.25343 C 745.7103,555.27381 745.8676,555.10278 754.2503,553.64691 C 775.6588,549.92871 779.8595,546.24785 775.2884,535.21216 C 771.5824,526.26518 765.7493,524.64061 757.7592,530.33012 C 754.2457,532.83194 750.0117,534.87886 748.3502,534.87886 C 742.585,534.87886 735.1265,541.82068 736.255,546.13619 C 737.0362,549.12322 736.1684,550.27886 733.1443,550.27886 C 728.0717,550.27886 727.977,551.14817 732.3266,557.78649 C 734.1835,560.62056 740.1235,564.62761 745.5266,566.69106 C 750.9296,568.75451 755.3503,571.3828 755.3503,572.53171 C 755.3503,577.1827 773.9013,580.4796 776.4913,576.28889 z M 818.4115,551.52675 C 817.109,548.13252 805.9183,546.51356 805.984,549.72886 C 806.0909,554.96759 814.3647,559.88826 817.7924,556.75175 C 818.8606,555.77433 819.1392,553.42308 818.4115,551.52675 z M 846.4994,529.76122 C 849.2828,527.72594 850.0317,525.40126 848.9758,522.07424 C 846.3924,513.93482 841.3502,510.67886 831.3285,510.67886 C 818.3647,510.67886 816.8321,515.40061 826.6192,525.18775 C 834.6209,533.18946 840.0903,534.4477 846.4994,529.76122 z M 797.1503,520.70871 C 797.1503,518.96512 796.074,516.87338 794.7586,516.06039 C 791.6522,514.1405 787.4119,518.38073 789.3318,521.48718 C 791.4883,524.97642 797.1503,524.41267 797.1503,520.70871 z M 671.7503,510.60982 C 671.7503,507.97605 665.5449,505.1509 663.7351,506.96071 C 661.8086,508.88727 665.0764,512.87886 668.5801,512.87886 C 670.3237,512.87886 671.7503,511.8578 671.7503,510.60982 z M 726.2113,492.52886 C 725.1626,489.34452 715.7503,487.39235 715.7503,490.35918 C 715.7503,493.50091 718.3343,495.27886 722.9003,495.27886 C 725.29,495.27886 726.7246,494.08734 726.2113,492.52886 z M 776.9341,482.96988 C 785.0409,481.30827 782.8041,469.36577 773.175,462.89909 C 758.057,452.74626 724.5503,459.12877 724.5503,472.16135 C 724.5503,476.20504 735.9808,481.43695 749.8503,483.74149 C 760.3145,485.48022 765.3923,485.33557 776.9341,482.96988 z M 656.3503,473.40871 C 656.3503,470.42273 652.4683,468.46084 651.0621,470.73612 C 649.7473,472.86357 651.6524,475.47886 654.517,475.47886 C 655.5253,475.47886 656.3503,474.54729 656.3503,473.40871 z M 822.2962,460.32814 C 823.9521,457.64883 817.6872,452.76375 814.8467,454.51931 C 810.9503,456.92741 812.3115,462.27886 816.8205,462.27886 C 819.169,462.27886 821.6332,461.40104 822.2962,460.32814 z M 663.1302,455.67886 C 666.2151,455.67886 665.4057,448.50156 661.7803,443.70838 C 657.6646,438.2669 657.6859,435.87886 661.8503,435.87886 C 663.6653,435.87886 665.1503,437.36386 665.1503,439.17886 C 665.1503,440.99386 666.1403,442.47886 667.3503,442.47886 C 668.5603,442.47886 669.5503,441.57587 669.5503,440.47224 C 669.5503,439.36859 673.7578,437.78846 678.9003,436.96082 C 689.7863,435.20883 698.1503,430.48853 698.1503,426.09694 C 698.1503,419.88594 686.7384,409.64089 674.8765,405.20277 C 653.4204,397.17503 640.9503,399.91249 640.9503,412.65029 C 640.9503,418.98381 640.3077,419.8989 636.5503,418.91631 C 633.5852,418.14092 632.1503,418.84882 632.1503,421.0869 C 632.1503,425.11833 637.4435,427.50568 640.2218,424.72735 C 642.397,422.55212 651.9503,428.09949 651.9503,431.53782 C 651.9503,432.64304 648.2378,433.32939 643.7003,433.06308 C 636.5613,432.64407 635.4503,433.21948 635.4503,437.33581 C 635.4503,442.83597 653.5541,458.23526 658.1802,456.67014 C 659.7917,456.12493 662.0192,455.67886 663.1302,455.67886 z M 804.8503,440.27886 C 805.5981,439.06886 804.6666,438.07886 802.7801,438.07886 C 800.8937,438.07886 799.3503,439.06886 799.3503,440.27886 C 799.3503,441.48886 800.2819,442.47886 801.4205,442.47886 C 802.559,442.47886 804.1025,441.48886 804.8503,440.27886 z M 746.3081,426.27076 C 750.4111,421.32687 743.5909,417.2292 735.2436,419.62317 C 723.8815,422.88179 726.241,425.96623 742.4309,429.01858 C 743.1903,429.16173 744.935,427.92522 746.3081,426.27076 z M 827.5582,412.90745 C 828.1272,405.93869 827.2632,403.46444 823.1582,400.30636 C 815.9006,394.72289 806.756,395.27318 800.3503,401.67887 C 793.6932,408.33598 793.6039,411.06214 799.8263,417.68552 C 803.9109,422.0334 806.4996,422.77054 815.7763,422.22733 L 826.8503,421.57886 L 827.5582,412.90745 z M 629.9503,411.67886 C 629.9503,410.46886 628.4069,409.47886 626.5205,409.47886 C 624.634,409.47886 623.7025,410.46886 624.4503,411.67886 C 625.1981,412.88886 626.7416,413.87886 627.8801,413.87886 C 629.0187,413.87886 629.9503,412.88886 629.9503,411.67886 z M 841.1503,409.47886 C 841.1503,407.03442 839.6836,405.07886 837.8503,405.07886 C 834.501,405.07886 833.3375,409.73274 836.017,412.41219 C 838.8061,415.20133 841.1503,413.86179 841.1503,409.47886 z M 708.0503,403.03207 C 708.0503,401.33446 707.0603,399.63162 705.8503,399.24796 C 702.2409,398.1035 697.4631,402.18716 699.1736,404.95472 C 701.2954,408.38784 708.0503,406.92477 708.0503,403.03207 z M 568.3503,398.47886 C 570.3359,394.7688 570.0234,394.07886 566.3575,394.07886 C 561.4555,394.07886 558.6071,397.37288 560.6503,400.67886 C 562.7837,404.13082 565.7843,403.27352 568.3503,398.47886 z M 624.2704,401.54348 C 630.9212,398.99135 628.1439,394.07886 620.0503,394.07886 C 611.989,394.07886 610.5645,395.81303 614.9903,400.23886 C 617.987,403.23552 619.3585,403.42833 624.2704,401.54348 z M 468.2835,398.42518 C 470.498,394.84193 467.1,383.07886 463.8503,383.07886 C 460.6006,383.07886 457.2026,394.84193 459.4171,398.42518 C 460.1832,399.66471 462.1781,400.67886 463.8503,400.67886 C 465.5225,400.67886 467.5174,399.66471 468.2835,398.42518 z M 506.7503,387.20949 C 506.7503,384.5572 500.7257,384.76798 499.0503,387.47886 C 496.6724,391.32635 500.1986,394.57754 503.6462,391.7163 C 505.3534,390.29939 506.7503,388.27132 506.7503,387.20949 z M 655.8113,391.32886 C 654.4179,387.09787 645.3503,386.48849 645.3503,390.62585 C 645.3503,392.8721 647.3365,394.07886 651.0336,394.07886 C 654.5967,394.07886 656.3791,393.05289 655.8113,391.32886 z M 592.1338,377.99416 C 591.3606,372.57914 580.8927,369.36325 574.4003,372.54616 C 568.7843,375.29949 569.6523,378.19744 577.5276,382.98668 C 585.9582,388.11365 593.2241,385.63014 592.1338,377.99416 z M 830.1503,385.51424 C 830.1503,382.93065 823.7168,380.51626 821.1159,382.12373 C 819.9953,382.81627 819.6481,384.30448 820.3443,385.43088 C 821.9619,388.04833 830.1503,388.11794 830.1503,385.51424 z M 480.3503,381.84902 C 480.3503,381.31543 479.3603,380.87886 478.1503,380.87886 C 476.9403,380.87886 475.9503,381.92729 475.9503,383.20871 C 475.9503,384.49012 476.9403,384.92669 478.1503,384.17886 C 479.3603,383.43104 480.3503,382.38261 480.3503,381.84902 z M 491.3503,381.97886 C 491.3503,380.16386 490.3603,378.67886 489.1503,378.67886 C 487.9403,378.67886 486.9503,380.16386 486.9503,381.97886 C 486.9503,383.79386 487.9403,385.27886 489.1503,385.27886 C 490.3603,385.27886 491.3503,383.79386 491.3503,381.97886 z M 620.0503,381.94872 C 620.0503,380.75531 617.8228,379.4625 615.1003,379.07585 C 610.2783,378.39101 608.586,380.78123 611.693,383.88824 C 613.8365,386.03172 620.0503,384.58965 620.0503,381.94872 z M 455.0503,376.32565 C 455.0503,374.62807 453.3178,372.90547 451.2003,372.49768 C 447.4081,371.76736 445.8404,376.43557 448.8628,379.45804 C 451.1689,381.76408 455.0503,379.79915 455.0503,376.32565 z M 697.0503,372.31864 C 697.0503,370.63551 695.3451,368.18275 693.2608,366.86807 C 688.5056,363.86855 683.718,367.8944 685.7484,373.18529 C 687.422,377.54681 697.0503,376.80849 697.0503,372.31864 z M 486.7815,368.5833 C 499.0292,358.27749 494.2427,346.31143 479.0153,349.16811 C 466.322,351.54936 455.6285,366.42374 462.017,372.81219 C 465.7533,376.54847 480.2593,374.07136 486.7815,368.5833 z M 537.1629,366.9399 C 538.028,362.47925 531.5931,359.55602 528.2557,362.89351 C 526.5238,364.62535 526.6568,366.2563 528.7337,368.75889 C 532.1692,372.89841 536.175,372.03398 537.1629,366.9399 z M 637.6503,369.87886 C 638.3981,368.66886 637.525,367.67886 635.71,367.67886 C 633.895,367.67886 631.7981,368.66886 631.0503,369.87886 C 630.3025,371.08886 631.1756,372.07886 632.9906,372.07886 C 634.8056,372.07886 636.9025,371.08886 637.6503,369.87886 z M 612.0618,364.72644 C 616.2169,359.71992 610.1292,356.86943 603.8184,360.86658 C 600.3707,363.05033 602.3359,367.67886 606.7108,367.67886 C 608.3062,367.67886 610.7142,366.35028 612.0618,364.72644 z M 666.1407,365.65623 C 668.2759,362.20137 660.7608,356.67886 653.9241,356.67886 C 646.7195,356.67886 642.7515,362.48339 647.7797,365.6672 C 651.8323,368.23328 664.5527,368.22569 666.1407,365.65623 z M 454.7778,359.89559 C 456.2525,356.05274 451.2652,353.35006 446.2503,355.27445 C 444.4353,355.97092 442.9503,358.05683 442.9503,359.90983 C 442.9503,364.38454 453.0599,364.37237 454.7778,359.89559 z M 587.0503,361.07886 C 586.3025,359.86886 585.254,358.87886 584.7205,358.87886 C 584.1869,358.87886 583.7503,359.86886 583.7503,361.07886 C 583.7503,362.28886 584.7987,363.27886 586.0801,363.27886 C 587.3616,363.27886 587.7981,362.28886 587.0503,361.07886 z M 517.7503,356.88348 C 517.7503,353.79831 512.7245,350.45709 509.7822,351.58615 C 505.998,353.0383 505.814,358.18558 509.5003,359.47145 C 512.7615,360.60903 517.7503,359.04406 517.7503,356.88348 z M 628.8281,354.44298 C 628.0681,353.21325 626.5247,352.77666 625.3983,353.47282 C 622.3468,355.35873 622.9158,356.67886 626.7801,356.67886 C 628.6666,356.67886 629.5881,355.67271 628.8281,354.44298 z M 644.2503,352.27886 C 643.5025,351.06886 641.959,350.07886 640.8205,350.07886 C 639.6819,350.07886 638.7503,351.06886 638.7503,352.27886 C 638.7503,353.48886 640.2937,354.47886 642.1801,354.47886 C 644.0666,354.47886 644.9981,353.48886 644.2503,352.27886 z M 584.1628,350.77602 C 582.5747,350.14051 580.6772,350.21865 579.9461,350.94969 C 579.2151,351.68075 580.5145,352.2007 582.8336,352.10517 C 585.3965,351.99962 585.9178,351.4783 584.1628,350.77602 z M 622.9376,347.29694 C 623.8132,342.75046 617.4622,339.68692 614.1103,343.03886 C 610.7584,346.3908 613.8219,352.74176 618.3684,351.86619 C 620.4756,351.46037 622.5318,349.40421 622.9376,347.29694 z M 527.6503,297.27886 C 526.9025,296.06886 525.359,295.07886 524.2205,295.07886 C 523.0819,295.07886 522.1503,296.06886 522.1503,297.27886 C 522.1503,298.48886 523.6937,299.47886 525.5801,299.47886 C 527.4666,299.47886 528.3981,298.48886 527.6503,297.27886 z M 467.1503,288.47886 C 467.1503,287.26886 465.6069,286.27886 463.7205,286.27886 C 461.834,286.27886 460.9025,287.26886 461.6503,288.47886 C 462.3981,289.68886 463.9416,290.67886 465.0801,290.67886 C 466.2187,290.67886 467.1503,289.68886 467.1503,288.47886 z M 435.9103,281.43886 C 440.8659,276.48327 438.6258,273.52944 429.2003,272.59077 C 424.0578,272.07863 418.4241,271.23645 416.681,270.71923 C 411.879,269.29444 411.0246,277.81474 415.6316,281.18344 C 420.58,284.8018 432.3985,284.95065 435.9103,281.43886 z M 539.7503,281.87886 C 539.7503,280.66886 538.7603,279.67886 537.5503,279.67886 C 536.3403,279.67886 535.3503,280.66886 535.3503,281.87886 C 535.3503,283.08886 536.3403,284.07886 537.5503,284.07886 C 538.7603,284.07886 539.7503,283.08886 539.7503,281.87886 z M 492.4599,275.26333 C 493.213,274.04477 492.2387,272.43747 490.2949,271.69154 C 486.0826,270.07516 483.7351,271.85637 485.7598,275.13249 C 487.5867,278.08837 490.6766,278.14872 492.4599,275.26333 z M 533.9486,264.17964 C 537.4078,261.05012 533.0006,257.67886 525.4503,257.67886 C 517.5076,257.67886 514.4085,260.33021 516.3716,265.44596 C 517.2426,267.71566 519.615,268.22236 524.8166,267.24968 C 528.7951,266.50572 532.9045,265.12419 533.9486,264.17964 z M 566.1503,266.47886 C 566.1503,265.26886 565.1019,264.27886 563.8205,264.27886 C 562.539,264.27886 562.1025,265.26886 562.8503,266.47886 C 563.5981,267.68886 564.6466,268.67886 565.1801,268.67886 C 565.7137,268.67886 566.1503,267.68886 566.1503,266.47886 z M 546.3503,251.31424 C 546.3503,247.74797 544.9304,244.40472 543.1208,243.71031 C 538.5584,241.95955 536.1933,246.84457 540.4501,249.22673 C 542.3847,250.30941 543.4078,252.65404 542.7236,254.43705 C 542.0394,256.22004 542.5755,257.67886 543.9149,257.67886 C 545.2544,257.67886 546.3503,254.81477 546.3503,251.31424 z M 527.6503,246.64872 C 527.6503,244.85031 525.4228,243.0625 522.7003,242.67585 C 517.8849,241.99196 515.8287,246.22388 519.293,249.68824 C 521.8561,252.25131 527.6503,250.14399 527.6503,246.64872 z M 67.415951,476.24048 C 66.468651,473.77166 68.601951,470.23569 74.052751,465.24048 C 83.393351,456.68046 84.359151,456.49929 91.185151,462.0267 C 95.418051,465.45427 95.828751,466.75144 93.550551,469.49658 C 92.034151,471.32368 87.363751,473.46201 83.171851,474.24842 C 78.979951,475.03481 75.550251,476.62339 75.550251,477.77854 C 75.550251,481.34934 68.893451,480.09063 67.415951,476.24048 z M 120.65025,464.47886 C 118.37455,460.79668 121.67395,457.87886 128.11345,457.87886 C 135.6527,457.87886 137.8709,459.85972 134.6618,463.72644 C 131.79815,467.17688 122.62225,467.66961 120.65025,464.47886 z M 169.0749,416.11873 C 168.4811,415.15785 170.9028,413.94493 174.4566,413.42335 C 178.0103,412.90175 180.4906,413.16639 179.9684,414.01139 C 178.4577,416.45581 170.263,418.04106 169.0749,416.11873 z M 186.0276,411.31399 C 186.5596,409.69968 189.2552,408.04805 192.0177,407.64373 C 195.4304,407.14424 196.7303,407.84943 196.073,409.84373 C 195.541,411.45805 192.8454,413.10968 190.0829,413.51399 C 186.6702,414.01348 185.3703,413.30829 186.0276,411.31399 z M 205.8083,403.67803 C 208.1245,401.36181 210.8435,400.66117 213.4297,401.71416 C 217.2322,403.26234 217.2116,403.44928 213.0503,405.16037 C 210.6303,406.15545 207.2007,407.03919 205.4289,407.12422 C 202.7704,407.25185 202.8367,406.64957 205.8083,403.67803 z M 427.5503,404.10871 C 427.5503,403.57512 428.5403,402.52669 429.7503,401.77886 C 430.9603,401.03104 431.9503,401.46761 431.9503,402.74902 C 431.9503,404.03043 430.9603,405.07886 429.7503,405.07886 C 428.5403,405.07886 427.5503,404.64229 427.5503,404.10871 z M 559.5503,304.40807 C 559.5503,302.11048 568.5042,296.69943 569.9363,298.13154 C 572.3789,300.57411 568.2805,306.07886 564.0193,306.07886 C 561.5614,306.07886 559.5503,305.32701 559.5503,304.40807 z M 483.6503,301.67886 C 482.9025,300.46886 483.834,299.47886 485.7205,299.47886 C 487.6069,299.47886 489.1503,300.46886 489.1503,301.67886 C 489.1503,302.88886 488.2187,303.87886 487.0801,303.87886 C 485.9416,303.87886 484.3981,302.88886 483.6503,301.67886 z M 443.4866,254.01727 C 440.0203,252.61981 442.1269,248.87886 446.3801,248.87886 C 448.1237,248.87886 449.5503,250.36386 449.5503,252.17886 C 449.5503,255.57122 448.2893,255.95353 443.4866,254.01727 z"
         id="path3221" />
      <path
         inkscape:transform-center-x="21.029499"
         inkscape:transform-center-y="-138.19385"
         sodipodi:nodetypes="csssc"
         id="path3151"
         d="M 567.77039,472.77189 C 567.77039,503.18934 562.45259,521.42233 533.26829,521.42233 C 504.08399,521.42233 480.39819,496.73571 480.39819,466.31826 C 480.39819,435.90082 497.30559,412.05838 517.38239,414.68923 C 540.11309,417.66783 557.84169,440.36872 567.77039,472.77189 z"
         style="fill:url(#radialGradient2439);fill-opacity:1;fill-rule:nonzero;stroke:none;stroke-width:1.0629921;stroke-linecap:round;stroke-linejoin:miter;stroke-miterlimit:4;stroke-dasharray:6.37795276, 2.12598425;stroke-dashoffset:0;stroke-opacity:1" />
      <path
         sodipodi:nodetypes="ccsccc"
         transform="translate(-95.726351,196.46556)"
         id="path3248"
         d="M 864.26328,427.60709 C 741.26335,470.43048 594.81415,395.02216 527.83865,292.74722 C 512.61253,247.4314 514.42516,223.86718 545.23992,202.84064 C 576.05467,181.8141 651.09767,208.64106 651.09767,208.64106 L 680.09979,275.34595 L 864.26328,427.60709 z"
         style="fill:url(#linearGradient2441);fill-opacity:1;fill-rule:evenodd;stroke:none;stroke-width:1px;stroke-linecap:butt;stroke-linejoin:miter;stroke-opacity:1" />
    </g>
  </g>
</svg>
